<svg xmlns:xlink="http://www.w3.org/1999/xlink" xmlns="http://www.w3.org/2000/svg" viewBox="-10 -10 120 120" preserveAspectRatio="none" version="1.1" height="200" width="200">
  <defs></defs>
  <style>
    .a6izo4zJpcolor18b8764c-03a8-40f8-b408-1e256e914929 {fill:#454552;fill-opacity:1;}.aD6z1nYkhcolor18b8764c-03a8-40f8-b408-1e256e914929 {fill:#454552;fill-opacity:1;}.aLgOaV3zRcolors-018b8764c-03a8-40f8-b408-1e256e914929 {fill:#609FD0;fill-opacity:1;}
  </style>
  <g class="aLgOaV3zRcolors-018b8764c-03a8-40f8-b408-1e256e914929" transform="matrix(1 0 0 1 0 0)">
    <g>
      <g>
        <path d="M94.385,53.687c-1.011-18.95-16.748-34.062-35.947-34.062c-14.666,0-27.866,8.979-33.34,22.5h-0.41h-11.25 c-7.443,0-13.501,6.058-13.501,13.501c0,6.738,4.966,12.319,11.426,13.325c1.006,6.46,6.587,11.426,13.325,11.426 c6.675,0,12.222-4.878,13.296-11.25h24.033c1.074,6.372,6.621,11.25,13.296,11.25s12.222-4.878,13.296-11.25h3.579 c4.341,0,7.876-3.535,7.876-7.876C100.063,57.671,97.661,54.641,94.385,53.687z M92.188,64.624h-3.579 c-1.074-6.372-6.621-11.25-13.296-11.25s-12.222,4.878-13.296,11.25H37.983c-1.074-6.372-6.621-11.25-13.296-11.25 c-6.592,0-12.085,4.751-13.26,11.006c-3.994-0.918-6.989-4.487-6.989-8.755c0-4.961,4.038-8.999,8.999-8.999h11.25h1.963h31.787 c1.242,0,2.251-1.009,2.251-2.251V24.238C77.007,25.4,89.937,39.014,89.937,55.625c0,1.242,1.009,2.251,2.251,2.251 c1.86,0,3.374,1.514,3.374,3.374S94.048,64.624,92.188,64.624z M83.994,69.126c-1.006,3.87-4.502,6.748-8.682,6.748 s-7.676-2.878-8.682-6.748c-0.186-0.726-0.317-1.47-0.317-2.251s0.132-1.525,0.317-2.251c1.006-3.87,4.502-6.748,8.682-6.748 s7.676,2.878,8.682,6.748c0.186,0.726,0.317,1.47,0.317,2.251S84.18,68.4,83.994,69.126z M33.369,69.126 c-1.006,3.87-4.502,6.748-8.682,6.748s-7.676-2.878-8.682-6.748c-0.186-0.726-0.317-1.47-0.317-2.251s0.132-1.525,0.317-2.251 c1.006-3.87,4.502-6.748,8.682-6.748s7.676,2.878,8.682,6.748c0.186,0.726,0.317,1.47,0.317,2.251S33.555,68.4,33.369,69.126z M56.187,24.214v17.91H30.034C34.883,31.919,44.888,25.027,56.187,24.214z"></path>
      </g>
    </g>
  </g>
</svg>
